<svg xmlns="http://www.w3.org/2000/svg" version="1.1" viewBox="0 0 800 800">
    <defs><linearGradient x1="50%" y1="0%" x2="50%" y2="100%" id="ffflurry-grad" gradientTransform="rotate(270)">
        <stop stop-color="hsl(238, 82%, 13%)" stop-opacity="1" offset="0%" style="--darkreader-inline-stopcolor: #050630;">

        </stop><stop stop-color="hsl(1.4, 100%, 67%)" stop-opacity="1" offset="45%" style="--darkreader-inline-stopcolor: #980300;">

    </stop>
        <stop stop-color="hsl(167, 52%, 78%)" stop-opacity="1" offset="100%" style="--darkreader-inline-stopcolor: #1c5a4f;">

        </stop>
    </linearGradient></defs>
    <rect width="100%" height="100%" fill="hsl(238, 82%, 13%)" style="--darkreader-inline-fill: #050630;">

    </rect><g fill="url(#ffflurry-grad)">
    <rect width="181" height="3" x="542.5" y="97.5" rx="1.5" transform="rotate(45, 633, 99)" opacity="0.55">

    </rect>
    <rect width="342" height="3" x="206" y="91.5" rx="1.5" transform="rotate(45, 377, 93)" opacity="0.83">

    </rect><rect width="104" height="3" x="408" y="524.5" rx="1.5" transform="rotate(45, 460, 526)" opacity="0.76">

</rect>
    <rect width="254" height="3" x="-11" y="732.5" rx="1.5" transform="rotate(45, 116, 734)" opacity="0.82">

    </rect>
    <rect width="349" height="3" x="153.5" y="329.5" rx="1.5" transform="rotate(45, 328, 331)" opacity="0.92">

    </rect>
    <rect width="272" height="3" x="94" y="402.5" rx="1.5" transform="rotate(45, 230, 404)" opacity="0.10">

    </rect>
    <rect width="601" height="3" x="266.5" y="618.5" rx="1.5" transform="rotate(45, 567, 620)" opacity="0.49">

    </rect>
    <rect width="384" height="3" x="397" y="757.5" rx="1.5" transform="rotate(45, 589, 759)" opacity="0.69">

    </rect>
    <rect width="226" height="3" x="402" y="358.5" rx="1.5" transform="rotate(45, 515, 360)" opacity="0.32"></rect><rect width="171" height="3" x="646.5" y="122.5" rx="1.5" transform="rotate(45, 732, 124)" opacity="0.28"></rect><rect width="574" height="3" x="322" y="388.5" rx="1.5" transform="rotate(45, 609, 390)" opacity="0.64"></rect><rect width="253" height="3" x="32.5" y="26.5" rx="1.5" transform="rotate(45, 159, 28)" opacity="0.76"></rect><rect width="170" height="3" x="232" y="499.5" rx="1.5" transform="rotate(45, 317, 501)" opacity="0.50"></rect><rect width="503" height="3" x="-116.5" y="557.5" rx="1.5" transform="rotate(45, 135, 559)" opacity="0.28"></rect><rect width="292" height="3" x="189" y="756.5" rx="1.5" transform="rotate(45, 335, 758)" opacity="0.88"></rect><rect width="377" height="3" x="326.5" y="757.5" rx="1.5" transform="rotate(45, 515, 759)" opacity="0.85"></rect><rect width="54" height="3" x="738" y="19.5" rx="1.5" transform="rotate(45, 765, 21)" opacity="0.89"></rect><rect width="563" height="3" x="33.5" y="669.5" rx="1.5" transform="rotate(45, 315, 671)" opacity="0.63"></rect><rect width="107" height="3" x="321.5" y="258.5" rx="1.5" transform="rotate(45, 375, 260)" opacity="0.33"></rect><rect width="588" height="3" x="359" y="717.5" rx="1.5" transform="rotate(45, 653, 719)" opacity="0.18"></rect><rect width="184" height="3" x="74" y="169.5" rx="1.5" transform="rotate(45, 166, 171)" opacity="0.82"></rect><rect width="140" height="3" x="102" y="232.5" rx="1.5" transform="rotate(45, 172, 234)" opacity="0.55"></rect><rect width="139" height="3" x="397.5" y="30.5" rx="1.5" transform="rotate(45, 467, 32)" opacity="0.69"></rect><rect width="428" height="3" x="-163" y="205.5" rx="1.5" transform="rotate(45, 51, 207)" opacity="0.23"></rect><rect width="210" height="3" x="436" y="168.5" rx="1.5" transform="rotate(45, 541, 170)" opacity="0.44"></rect><rect width="287" height="3" x="613.5" y="266.5" rx="1.5" transform="rotate(45, 757, 268)" opacity="0.94"></rect><rect width="259" height="3" x="359.5" y="673.5" rx="1.5" transform="rotate(45, 489, 675)" opacity="0.07"></rect><rect width="372" height="3" x="-134" y="655.5" rx="1.5" transform="rotate(45, 52, 657)" opacity="0.95"></rect><rect width="414" height="3" x="11" y="111.5" rx="1.5" transform="rotate(45, 218, 113)" opacity="0.95"></rect><rect width="378" height="3" x="216" y="603.5" rx="1.5" transform="rotate(45, 405, 605)" opacity="0.52"></rect><rect width="82" height="3" x="111" y="776.5" rx="1.5" transform="rotate(45, 152, 778)" opacity="0.85"></rect><rect width="293" height="3" x="83.5" y="738.5" rx="1.5" transform="rotate(45, 230, 740)" opacity="0.21"></rect><rect width="785" height="3" x="-291.5" y="404.5" rx="1.5" transform="rotate(45, 101, 406)" opacity="0.97"></rect><rect width="391" height="3" x="41.5" y="299.5" rx="1.5" transform="rotate(45, 237, 301)" opacity="0.19"></rect><rect width="364" height="3" x="408" y="492.5" rx="1.5" transform="rotate(45, 590, 494)" opacity="0.56"></rect><rect width="126" height="3" x="129" y="493.5" rx="1.5" transform="rotate(45, 192, 495)" opacity="0.37"></rect><rect width="234" height="3" x="-80" y="715.5" rx="1.5" transform="rotate(45, 37, 717)" opacity="0.58"></rect><rect width="502" height="3" x="316" y="56.5" rx="1.5" transform="rotate(45, 567, 58)" opacity="0.26"></rect><rect width="144" height="3" x="542" y="227.5" rx="1.5" transform="rotate(45, 614, 229)" opacity="0.33"></rect><rect width="272" height="3" x="524" y="21.5" rx="1.5" transform="rotate(45, 660, 23)" opacity="0.74"></rect><rect width="164" height="3" x="618" y="229.5" rx="1.5" transform="rotate(45, 700, 231)" opacity="0.58"></rect><rect width="694" height="3" x="68" y="195.5" rx="1.5" transform="rotate(45, 415, 197)" opacity="0.96"></rect><rect width="268" height="3" x="-98" y="325.5" rx="1.5" transform="rotate(45, 36, 327)" opacity="0.65"></rect><rect width="295" height="3" x="352.5" y="245.5" rx="1.5" transform="rotate(45, 500, 247)" opacity="0.72"></rect><rect width="246" height="3" x="658" y="116.5" rx="1.5" transform="rotate(45, 781, 118)" opacity="0.28"></rect><rect width="405" height="3" x="149.5" y="410.5" rx="1.5" transform="rotate(45, 352, 412)" opacity="0.43"></rect><rect width="225" height="3" x="-53.5" y="23.5" rx="1.5" transform="rotate(45, 59, 25)" opacity="0.29"></rect><rect width="88" height="3" x="246" y="260.5" rx="1.5" transform="rotate(45, 290, 262)" opacity="0.48"></rect><rect width="473" height="3" x="-123.5" y="290.5" rx="1.5" transform="rotate(45, 113, 292)" opacity="0.73"></rect><rect width="194" height="3" x="671" y="194.5" rx="1.5" transform="rotate(45, 768, 196)" opacity="0.86"></rect><rect width="150" height="3" x="100" y="333.5" rx="1.5" transform="rotate(45, 175, 335)" opacity="0.86"></rect><rect width="318" height="3" x="120" y="183.5" rx="1.5" transform="rotate(45, 279, 185)" opacity="0.15"></rect><rect width="139" height="3" x="496.5" y="296.5" rx="1.5" transform="rotate(45, 566, 298)" opacity="0.32"></rect><rect width="445" height="3" x="391.5" y="153.5" rx="1.5" transform="rotate(45, 614, 155)" opacity="0.29"></rect><rect width="654" height="3" x="145" y="115.5" rx="1.5" transform="rotate(45, 472, 117)" opacity="0.57"></rect><rect width="503" height="3" x="-205.5" y="581.5" rx="1.5" transform="rotate(45, 46, 583)" opacity="0.22"></rect><rect width="346" height="3" x="261" y="334.5" rx="1.5" transform="rotate(45, 434, 336)" opacity="0.68"></rect><rect width="137" height="3" x="677.5" y="721.5" rx="1.5" transform="rotate(45, 746, 723)" opacity="0.80"></rect><rect width="478" height="3" x="185" y="737.5" rx="1.5" transform="rotate(45, 424, 739)" opacity="0.56"></rect><rect width="43" height="3" x="635.5" y="304.5" rx="1.5" transform="rotate(45, 657, 306)" opacity="0.66"></rect><rect width="96" height="3" x="636" y="74.5" rx="1.5" transform="rotate(45, 684, 76)" opacity="0.82"></rect><rect width="474" height="3" x="-191" y="478.5" rx="1.5" transform="rotate(45, 46, 480)" opacity="0.25"></rect><rect width="65" height="3" x="655.5" y="163.5" rx="1.5" transform="rotate(45, 688, 165)" opacity="0.74"></rect><rect width="302" height="3" x="597" y="59.5" rx="1.5" transform="rotate(45, 748, 61)" opacity="0.44"></rect><rect width="370" height="3" x="546" y="435.5" rx="1.5" transform="rotate(45, 731, 437)" opacity="0.21"></rect><rect width="273" height="3" x="610.5" y="336.5" rx="1.5" transform="rotate(45, 747, 338)" opacity="0.57"></rect><rect width="300" height="3" x="524" y="566.5" rx="1.5" transform="rotate(45, 674, 568)" opacity="0.26"></rect><rect width="545" height="3" x="-6.5" y="592.5" rx="1.5" transform="rotate(45, 266, 594)" opacity="0.07"></rect><rect width="283" height="3" x="-29.5" y="131.5" rx="1.5" transform="rotate(45, 112, 133)" opacity="0.92"></rect><rect width="413" height="3" x="102.5" y="59.5" rx="1.5" transform="rotate(45, 309, 61)" opacity="0.63"></rect><rect width="83" height="3" x="82.5" y="70.5" rx="1.5" transform="rotate(45, 124, 72)" opacity="0.90"></rect><rect width="536" height="3" x="-33" y="33.5" rx="1.5" transform="rotate(45, 235, 35)" opacity="0.85"></rect><rect width="507" height="3" x="218.5" y="436.5" rx="1.5" transform="rotate(45, 472, 438)" opacity="0.23"></rect><rect width="124" height="3" x="99" y="654.5" rx="1.5" transform="rotate(45, 161, 656)" opacity="0.95"></rect><rect width="115" height="3" x="703.5" y="578.5" rx="1.5" transform="rotate(45, 761, 580)" opacity="0.17"></rect><rect width="497" height="3" x="-213.5" y="95.5" rx="1.5" transform="rotate(45, 35, 97)" opacity="0.66"></rect><rect width="332" height="3" x="-121" y="772.5" rx="1.5" transform="rotate(45, 45, 774)" opacity="0.31"></rect></g></svg>